<svg width="626" height="427" viewBox="0 0 626 427" fill="none" xmlns="http://www.w3.org/2000/svg">
<path d="M207 196.5C207 280.723 138.723 349 54.5 349C-29.7234 349 -98 280.723 -98 196.5C-98 112.277 -29.7234 44 54.5 44C138.723 44 207 112.277 207 196.5Z" fill="white"/>
<path d="M765 213.5C765 331.413 669.413 427 551.5 427C433.587 427 338 331.413 338 213.5C338 95.5872 433.587 0 551.5 0C669.413 0 765 95.5872 765 213.5Z" fill="white"/>
<path d="M417.5 265C417.5 349.223 349.223 417.5 265 417.5C180.777 417.5 112.5 349.223 112.5 265C112.5 180.777 180.777 112.5 265 112.5C349.223 112.5 417.5 180.777 417.5 265Z" fill="white"/>
</svg>
