<svg xmlns="http://www.w3.org/2000/svg" viewBox="0 0 48 48" id="Newsletter"><path d="M7,39V17a1,1,0,0,1,1-1h2v2H9V39a1,1,0,0,0,2,0V13a1,1,0,0,1,1-1h2v2H13V39a3,3,0,0,1-6,0ZM23,14H37V10H23ZM45,3V39a7,7,0,0,1-7,7H10a7,7,0,0,1-7-7V20a1,1,0,0,1,1-1H6v2H5V39a5,5,0,0,0,10,0V3a1,1,0,0,1,1-1H44A1,1,0,0,1,45,3ZM21,28h2v1h2V28h1a1,1,0,0,0,1-1V24a1,1,0,0,0-1-1H23V22h4V20H25V19H23v1H22a1,1,0,0,0-1,1v3a1,1,0,0,0,1,1h3v1H21ZM39,38H21v2H39Zm0-6H21v2H39Zm0-6H30v2h9Zm0-6H30v2h9ZM39,9a1,1,0,0,0-1-1H22a1,1,0,0,0-1,1v6a1,1,0,0,0,1,1H38a1,1,0,0,0,1-1Z" fill="#ffbf66" class="color000000 svgShape"></path></svg>