<svg xmlns="http://www.w3.org/2000/svg" xmlns:xlink="http://www.w3.org/1999/xlink" width="500" zoomAndPan="magnify" viewBox="0 0 375 374.999991" height="500" preserveAspectRatio="xMidYMid meet" version="1.0"><defs><g/></defs><g fill="#e36414" fill-opacity="1"><g transform="translate(88.50177, 172.965685)"><g><path d="M 3.4375 0 L 3.4375 -29.34375 L 13.5625 -29.34375 L 13.5625 -25.109375 L 13.671875 -25.109375 C 13.742188 -25.265625 13.863281 -25.457031 14.03125 -25.6875 C 14.207031 -25.914062 14.582031 -26.316406 15.15625 -26.890625 C 15.726562 -27.460938 16.335938 -27.972656 16.984375 -28.421875 C 17.640625 -28.878906 18.476562 -29.289062 19.5 -29.65625 C 20.53125 -30.019531 21.582031 -30.203125 22.65625 -30.203125 C 23.757812 -30.203125 24.84375 -30.046875 25.90625 -29.734375 C 26.976562 -29.429688 27.765625 -29.128906 28.265625 -28.828125 L 29.0625 -28.375 L 24.828125 -19.796875 C 23.566406 -20.859375 21.8125 -21.390625 19.5625 -21.390625 C 18.34375 -21.390625 17.296875 -21.125 16.421875 -20.59375 C 15.546875 -20.0625 14.925781 -19.410156 14.5625 -18.640625 C 14.195312 -17.878906 13.9375 -17.234375 13.78125 -16.703125 C 13.632812 -16.171875 13.5625 -15.75 13.5625 -15.4375 L 13.5625 0 Z M 3.4375 0 "/></g></g></g><g fill="#e36414" fill-opacity="1"><g transform="translate(111.608839, 172.965685)"><g><path d="M 33.125 -13.265625 L 11.84375 -13.265625 C 11.84375 -11.210938 12.507812 -9.6875 13.84375 -8.6875 C 15.175781 -7.695312 16.625 -7.203125 18.1875 -7.203125 C 19.832031 -7.203125 21.128906 -7.421875 22.078125 -7.859375 C 23.035156 -8.296875 24.125 -9.164062 25.34375 -10.46875 L 32.65625 -6.8125 C 29.613281 -1.695312 24.546875 0.859375 17.453125 0.859375 C 13.023438 0.859375 9.226562 -0.65625 6.0625 -3.6875 C 2.894531 -6.71875 1.3125 -10.367188 1.3125 -14.640625 C 1.3125 -18.910156 2.894531 -22.570312 6.0625 -25.625 C 9.226562 -28.675781 13.023438 -30.203125 17.453125 -30.203125 C 22.097656 -30.203125 25.878906 -28.859375 28.796875 -26.171875 C 31.710938 -23.484375 33.171875 -19.640625 33.171875 -14.640625 C 33.171875 -13.953125 33.15625 -13.492188 33.125 -13.265625 Z M 12.125 -18.875 L 23.28125 -18.875 C 23.050781 -20.40625 22.445312 -21.578125 21.46875 -22.390625 C 20.5 -23.210938 19.253906 -23.625 17.734375 -23.625 C 16.054688 -23.625 14.71875 -23.1875 13.71875 -22.3125 C 12.726562 -21.4375 12.195312 -20.289062 12.125 -18.875 Z M 12.125 -18.875 "/></g></g></g><g fill="#e36414" fill-opacity="1"><g transform="translate(140.721823, 172.965685)"><g><path d="M 3.4375 0 L 3.4375 -29.34375 L 13.5625 -29.34375 L 13.5625 -26.25 L 13.671875 -26.25 C 16.304688 -28.882812 19.109375 -30.203125 22.078125 -30.203125 C 23.523438 -30.203125 24.960938 -30.007812 26.390625 -29.625 C 27.828125 -29.25 29.203125 -28.660156 30.515625 -27.859375 C 31.828125 -27.054688 32.894531 -25.921875 33.71875 -24.453125 C 34.539062 -22.984375 34.953125 -21.273438 34.953125 -19.328125 L 34.953125 0 L 24.828125 0 L 24.828125 -16.59375 C 24.828125 -18.113281 24.335938 -19.445312 23.359375 -20.59375 C 22.390625 -21.738281 21.125 -22.3125 19.5625 -22.3125 C 18.039062 -22.3125 16.660156 -21.71875 15.421875 -20.53125 C 14.179688 -19.351562 13.5625 -18.039062 13.5625 -16.59375 L 13.5625 0 Z M 3.4375 0 "/></g></g></g><g fill="#e36414" fill-opacity="1"><g transform="translate(173.152357, 172.965685)"><g><path d="M 5.140625 -29.34375 L 5.140625 -40.265625 L 15.265625 -40.265625 L 15.265625 -29.34375 L 21.453125 -29.34375 L 21.453125 -21.625 L 15.265625 -21.625 L 15.265625 -12.296875 C 15.265625 -9.585938 16.03125 -8.234375 17.5625 -8.234375 C 17.945312 -8.234375 18.347656 -8.304688 18.765625 -8.453125 C 19.179688 -8.609375 19.503906 -8.765625 19.734375 -8.921875 L 20.078125 -9.15625 L 22.59375 -0.96875 C 20.414062 0.25 17.9375 0.859375 15.15625 0.859375 C 13.25 0.859375 11.609375 0.523438 10.234375 -0.140625 C 8.867188 -0.804688 7.832031 -1.703125 7.125 -2.828125 C 6.414062 -3.953125 5.90625 -5.132812 5.59375 -6.375 C 5.289062 -7.613281 5.140625 -8.941406 5.140625 -10.359375 L 5.140625 -21.625 L 0.921875 -21.625 L 0.921875 -29.34375 Z M 5.140625 -29.34375 "/></g></g></g><g fill="#e36414" fill-opacity="1"><g transform="translate(190.367915, 172.965685)"><g><path d="M 5.421875 -3.625 C 2.679688 -6.625 1.3125 -10.296875 1.3125 -14.640625 C 1.3125 -18.992188 2.679688 -22.675781 5.421875 -25.6875 C 8.171875 -28.695312 11.664062 -30.203125 15.90625 -30.203125 C 19.789062 -30.203125 22.992188 -28.984375 25.515625 -26.546875 L 25.515625 -29.34375 L 35.640625 -29.34375 L 35.640625 0 L 25.625 0 L 25.625 -3.3125 L 25.515625 -3.3125 C 22.992188 -0.53125 19.789062 0.859375 15.90625 0.859375 C 11.664062 0.859375 8.171875 -0.632812 5.421875 -3.625 Z M 14.03125 -19.609375 C 12.71875 -18.316406 12.0625 -16.660156 12.0625 -14.640625 C 12.0625 -12.617188 12.691406 -10.96875 13.953125 -9.6875 C 15.210938 -8.414062 16.875 -7.78125 18.9375 -7.78125 C 20.914062 -7.78125 22.539062 -8.425781 23.8125 -9.71875 C 25.09375 -11.019531 25.734375 -12.660156 25.734375 -14.640625 C 25.734375 -16.660156 25.078125 -18.316406 23.765625 -19.609375 C 22.453125 -20.910156 20.84375 -21.5625 18.9375 -21.5625 C 16.988281 -21.5625 15.351562 -20.910156 14.03125 -19.609375 Z M 14.03125 -19.609375 "/></g></g></g><g fill="#e36414" fill-opacity="1"><g transform="translate(224.056825, 172.965685)"><g><path d="M 3.4375 0 L 3.4375 -49.1875 L 13.5625 -49.1875 L 13.5625 0 Z M 3.4375 0 "/></g></g></g><g fill="#e36414" fill-opacity="1"><g transform="translate(235.666866, 172.965685)"><g><path d="M 3.4375 0 L 3.4375 -49.1875 L 13.5625 -49.1875 L 13.5625 0 Z M 3.4375 0 "/></g></g></g><g fill="#e36414" fill-opacity="1"><g transform="translate(247.276908, 172.965685)"><g><path d="M 25.6875 -29.34375 L 37.359375 -29.34375 L 14.296875 14.875 L 2.625 14.875 L 12.75 -4.578125 L -1.140625 -29.34375 L 10.53125 -29.34375 L 18.703125 -14.296875 Z M 25.6875 -29.34375 "/></g></g></g><g fill="#000000" fill-opacity="1"><g transform="translate(72.197317, 198.369275)"><g><path d="M 3.75 -6.0625 C 3.945312 -6.0625 4.113281 -6.007812 4.25 -5.90625 C 4.394531 -5.800781 4.46875 -5.675781 4.46875 -5.53125 C 4.46875 -5.34375 4.421875 -5.203125 4.328125 -5.109375 C 4.234375 -5.015625 4.117188 -4.96875 3.984375 -4.96875 C 3.921875 -4.96875 3.820312 -4.988281 3.6875 -5.03125 C 3.53125 -5.09375 3.40625 -5.125 3.3125 -5.125 C 3.070312 -5.125 2.84375 -5.039062 2.625 -4.875 C 2.40625 -4.707031 2.222656 -4.484375 2.078125 -4.203125 C 1.941406 -3.921875 1.875 -3.609375 1.875 -3.265625 L 1.875 -0.546875 C 1.875 -0.390625 1.820312 -0.257812 1.71875 -0.15625 C 1.613281 -0.0507812 1.484375 0 1.328125 0 C 1.171875 0 1.039062 -0.0507812 0.9375 -0.15625 C 0.84375 -0.257812 0.796875 -0.390625 0.796875 -0.546875 L 0.796875 -5.375 C 0.796875 -5.53125 0.847656 -5.660156 0.953125 -5.765625 C 1.054688 -5.867188 1.179688 -5.921875 1.328125 -5.921875 C 1.484375 -5.921875 1.613281 -5.867188 1.71875 -5.765625 C 1.820312 -5.660156 1.875 -5.53125 1.875 -5.375 L 1.875 -4.796875 C 2.039062 -5.171875 2.289062 -5.472656 2.625 -5.703125 C 2.957031 -5.929688 3.332031 -6.050781 3.75 -6.0625 Z M 3.75 -6.0625 "/></g></g></g><g fill="#000000" fill-opacity="1"><g transform="translate(84.235159, 198.369275)"><g><path d="M 6.40625 -2.953125 C 6.40625 -2.367188 6.269531 -1.84375 6 -1.375 C 5.738281 -0.90625 5.378906 -0.539062 4.921875 -0.28125 C 4.472656 -0.0195312 3.972656 0.109375 3.421875 0.109375 C 2.867188 0.109375 2.363281 -0.0195312 1.90625 -0.28125 C 1.457031 -0.539062 1.097656 -0.90625 0.828125 -1.375 C 0.566406 -1.84375 0.4375 -2.367188 0.4375 -2.953125 C 0.4375 -3.546875 0.566406 -4.078125 0.828125 -4.546875 C 1.097656 -5.023438 1.457031 -5.394531 1.90625 -5.65625 C 2.363281 -5.925781 2.867188 -6.0625 3.421875 -6.0625 C 3.972656 -6.0625 4.472656 -5.925781 4.921875 -5.65625 C 5.378906 -5.394531 5.738281 -5.023438 6 -4.546875 C 6.269531 -4.078125 6.40625 -3.546875 6.40625 -2.953125 Z M 5.328125 -2.953125 C 5.328125 -3.359375 5.242188 -3.722656 5.078125 -4.046875 C 4.910156 -4.367188 4.679688 -4.617188 4.390625 -4.796875 C 4.097656 -4.972656 3.773438 -5.0625 3.421875 -5.0625 C 3.066406 -5.0625 2.742188 -4.972656 2.453125 -4.796875 C 2.160156 -4.617188 1.929688 -4.367188 1.765625 -4.046875 C 1.597656 -3.722656 1.515625 -3.359375 1.515625 -2.953125 C 1.515625 -2.554688 1.597656 -2.195312 1.765625 -1.875 C 1.929688 -1.5625 2.160156 -1.316406 2.453125 -1.140625 C 2.742188 -0.960938 3.066406 -0.875 3.421875 -0.875 C 3.773438 -0.875 4.097656 -0.960938 4.390625 -1.140625 C 4.679688 -1.316406 4.910156 -1.5625 5.078125 -1.875 C 5.242188 -2.195312 5.328125 -2.554688 5.328125 -2.953125 Z M 5.328125 -2.953125 "/></g></g></g><g fill="#000000" fill-opacity="1"><g transform="translate(98.453306, 198.369275)"><g><path d="M 6.40625 -2.953125 C 6.40625 -2.367188 6.269531 -1.84375 6 -1.375 C 5.738281 -0.90625 5.378906 -0.539062 4.921875 -0.28125 C 4.472656 -0.0195312 3.972656 0.109375 3.421875 0.109375 C 2.867188 0.109375 2.363281 -0.0195312 1.90625 -0.28125 C 1.457031 -0.539062 1.097656 -0.90625 0.828125 -1.375 C 0.566406 -1.84375 0.4375 -2.367188 0.4375 -2.953125 C 0.4375 -3.546875 0.566406 -4.078125 0.828125 -4.546875 C 1.097656 -5.023438 1.457031 -5.394531 1.90625 -5.65625 C 2.363281 -5.925781 2.867188 -6.0625 3.421875 -6.0625 C 3.972656 -6.0625 4.472656 -5.925781 4.921875 -5.65625 C 5.378906 -5.394531 5.738281 -5.023438 6 -4.546875 C 6.269531 -4.078125 6.40625 -3.546875 6.40625 -2.953125 Z M 5.328125 -2.953125 C 5.328125 -3.359375 5.242188 -3.722656 5.078125 -4.046875 C 4.910156 -4.367188 4.679688 -4.617188 4.390625 -4.796875 C 4.097656 -4.972656 3.773438 -5.0625 3.421875 -5.0625 C 3.066406 -5.0625 2.742188 -4.972656 2.453125 -4.796875 C 2.160156 -4.617188 1.929688 -4.367188 1.765625 -4.046875 C 1.597656 -3.722656 1.515625 -3.359375 1.515625 -2.953125 C 1.515625 -2.554688 1.597656 -2.195312 1.765625 -1.875 C 1.929688 -1.5625 2.160156 -1.316406 2.453125 -1.140625 C 2.742188 -0.960938 3.066406 -0.875 3.421875 -0.875 C 3.773438 -0.875 4.097656 -0.960938 4.390625 -1.140625 C 4.679688 -1.316406 4.910156 -1.5625 5.078125 -1.875 C 5.242188 -2.195312 5.328125 -2.554688 5.328125 -2.953125 Z M 5.328125 -2.953125 "/></g></g></g><g fill="#000000" fill-opacity="1"><g transform="translate(112.671454, 198.369275)"><g><path d="M 7.59375 -6.015625 C 8.90625 -6.015625 9.5625 -5.195312 9.5625 -3.5625 L 9.5625 -0.546875 C 9.5625 -0.390625 9.515625 -0.257812 9.421875 -0.15625 C 9.328125 -0.0507812 9.195312 0 9.03125 0 C 8.875 0 8.742188 -0.0507812 8.640625 -0.15625 C 8.546875 -0.257812 8.5 -0.390625 8.5 -0.546875 L 8.5 -3.546875 C 8.5 -4.535156 8.082031 -5.03125 7.25 -5.03125 C 6.957031 -5.03125 6.691406 -4.960938 6.453125 -4.828125 C 6.210938 -4.691406 6.023438 -4.507812 5.890625 -4.28125 C 5.765625 -4.0625 5.703125 -3.816406 5.703125 -3.546875 L 5.703125 -0.546875 C 5.703125 -0.390625 5.648438 -0.257812 5.546875 -0.15625 C 5.453125 -0.0507812 5.320312 0 5.15625 0 C 5 0 4.867188 -0.0507812 4.765625 -0.15625 C 4.671875 -0.257812 4.625 -0.390625 4.625 -0.546875 L 4.625 -3.5625 C 4.625 -4 4.53125 -4.351562 4.34375 -4.625 C 4.15625 -4.894531 3.84375 -5.03125 3.40625 -5.03125 C 2.96875 -5.03125 2.601562 -4.890625 2.3125 -4.609375 C 2.019531 -4.328125 1.875 -3.976562 1.875 -3.5625 L 1.875 -0.546875 C 1.875 -0.390625 1.820312 -0.257812 1.71875 -0.15625 C 1.613281 -0.0507812 1.484375 0 1.328125 0 C 1.171875 0 1.039062 -0.0507812 0.9375 -0.15625 C 0.84375 -0.257812 0.796875 -0.390625 0.796875 -0.546875 L 0.796875 -5.375 C 0.796875 -5.53125 0.847656 -5.660156 0.953125 -5.765625 C 1.054688 -5.867188 1.179688 -5.921875 1.328125 -5.921875 C 1.484375 -5.921875 1.613281 -5.867188 1.71875 -5.765625 C 1.820312 -5.660156 1.875 -5.53125 1.875 -5.375 L 1.875 -4.984375 C 2.070312 -5.273438 2.332031 -5.519531 2.65625 -5.71875 C 2.988281 -5.914062 3.347656 -6.015625 3.734375 -6.015625 C 4.660156 -6.015625 5.265625 -5.601562 5.546875 -4.78125 C 5.710938 -5.09375 5.988281 -5.375 6.375 -5.625 C 6.757812 -5.882812 7.164062 -6.015625 7.59375 -6.015625 Z M 7.59375 -6.015625 "/></g></g></g><g fill="#000000" fill-opacity="1"><g transform="translate(130.414244, 198.369275)"><g/></g></g><g fill="#000000" fill-opacity="1"><g transform="translate(140.915708, 198.369275)"><g><path d="M 3.75 -6.0625 C 3.945312 -6.0625 4.113281 -6.007812 4.25 -5.90625 C 4.394531 -5.800781 4.46875 -5.675781 4.46875 -5.53125 C 4.46875 -5.34375 4.421875 -5.203125 4.328125 -5.109375 C 4.234375 -5.015625 4.117188 -4.96875 3.984375 -4.96875 C 3.921875 -4.96875 3.820312 -4.988281 3.6875 -5.03125 C 3.53125 -5.09375 3.40625 -5.125 3.3125 -5.125 C 3.070312 -5.125 2.84375 -5.039062 2.625 -4.875 C 2.40625 -4.707031 2.222656 -4.484375 2.078125 -4.203125 C 1.941406 -3.921875 1.875 -3.609375 1.875 -3.265625 L 1.875 -0.546875 C 1.875 -0.390625 1.820312 -0.257812 1.71875 -0.15625 C 1.613281 -0.0507812 1.484375 0 1.328125 0 C 1.171875 0 1.039062 -0.0507812 0.9375 -0.15625 C 0.84375 -0.257812 0.796875 -0.390625 0.796875 -0.546875 L 0.796875 -5.375 C 0.796875 -5.53125 0.847656 -5.660156 0.953125 -5.765625 C 1.054688 -5.867188 1.179688 -5.921875 1.328125 -5.921875 C 1.484375 -5.921875 1.613281 -5.867188 1.71875 -5.765625 C 1.820312 -5.660156 1.875 -5.53125 1.875 -5.375 L 1.875 -4.796875 C 2.039062 -5.171875 2.289062 -5.472656 2.625 -5.703125 C 2.957031 -5.929688 3.332031 -6.050781 3.75 -6.0625 Z M 3.75 -6.0625 "/></g></g></g><g fill="#000000" fill-opacity="1"><g transform="translate(152.953553, 198.369275)"><g><path d="M 6 -3.1875 C 5.988281 -3.050781 5.929688 -2.9375 5.828125 -2.84375 C 5.722656 -2.75 5.597656 -2.703125 5.453125 -2.703125 L 1.484375 -2.703125 C 1.535156 -2.148438 1.742188 -1.707031 2.109375 -1.375 C 2.472656 -1.039062 2.921875 -0.875 3.453125 -0.875 C 3.804688 -0.875 4.097656 -0.925781 4.328125 -1.03125 C 4.554688 -1.144531 4.753906 -1.285156 4.921875 -1.453125 C 5.035156 -1.515625 5.144531 -1.546875 5.25 -1.546875 C 5.375 -1.546875 5.476562 -1.5 5.5625 -1.40625 C 5.65625 -1.320312 5.703125 -1.21875 5.703125 -1.09375 C 5.703125 -0.9375 5.628906 -0.796875 5.484375 -0.671875 C 5.265625 -0.453125 4.972656 -0.265625 4.609375 -0.109375 C 4.242188 0.0351562 3.875 0.109375 3.5 0.109375 C 2.894531 0.109375 2.359375 -0.015625 1.890625 -0.265625 C 1.429688 -0.523438 1.070312 -0.882812 0.8125 -1.34375 C 0.5625 -1.800781 0.4375 -2.320312 0.4375 -2.90625 C 0.4375 -3.539062 0.566406 -4.09375 0.828125 -4.5625 C 1.085938 -5.039062 1.429688 -5.410156 1.859375 -5.671875 C 2.285156 -5.929688 2.742188 -6.0625 3.234375 -6.0625 C 3.710938 -6.0625 4.160156 -5.9375 4.578125 -5.6875 C 5.003906 -5.4375 5.34375 -5.09375 5.59375 -4.65625 C 5.851562 -4.21875 5.988281 -3.726562 6 -3.1875 Z M 3.234375 -5.0625 C 2.804688 -5.0625 2.4375 -4.941406 2.125 -4.703125 C 1.820312 -4.460938 1.625 -4.097656 1.53125 -3.609375 L 4.859375 -3.609375 L 4.859375 -3.6875 C 4.816406 -4.09375 4.632812 -4.421875 4.3125 -4.671875 C 4 -4.929688 3.640625 -5.0625 3.234375 -5.0625 Z M 3.234375 -5.0625 "/></g></g></g><g fill="#000000" fill-opacity="1"><g transform="translate(166.765014, 198.369275)"><g><path d="M 3.8125 -6.0625 C 5.175781 -6.0625 5.859375 -5.242188 5.859375 -3.609375 L 5.859375 -0.546875 C 5.859375 -0.390625 5.804688 -0.257812 5.703125 -0.15625 C 5.597656 -0.0507812 5.46875 0 5.3125 0 C 5.15625 0 5.023438 -0.0507812 4.921875 -0.15625 C 4.828125 -0.257812 4.78125 -0.390625 4.78125 -0.546875 L 4.78125 -3.609375 C 4.78125 -4.046875 4.675781 -4.394531 4.46875 -4.65625 C 4.269531 -4.925781 3.941406 -5.0625 3.484375 -5.0625 C 3.179688 -5.0625 2.90625 -4.992188 2.65625 -4.859375 C 2.414062 -4.734375 2.222656 -4.554688 2.078125 -4.328125 C 1.941406 -4.109375 1.875 -3.867188 1.875 -3.609375 L 1.875 -0.546875 C 1.875 -0.390625 1.820312 -0.257812 1.71875 -0.15625 C 1.613281 -0.0507812 1.484375 0 1.328125 0 C 1.171875 0 1.039062 -0.0507812 0.9375 -0.15625 C 0.84375 -0.257812 0.796875 -0.390625 0.796875 -0.546875 L 0.796875 -5.375 C 0.796875 -5.53125 0.847656 -5.660156 0.953125 -5.765625 C 1.054688 -5.867188 1.179688 -5.921875 1.328125 -5.921875 C 1.484375 -5.921875 1.613281 -5.867188 1.71875 -5.765625 C 1.820312 -5.660156 1.875 -5.53125 1.875 -5.375 L 1.875 -4.984375 C 2.070312 -5.285156 2.34375 -5.539062 2.6875 -5.75 C 3.039062 -5.957031 3.414062 -6.0625 3.8125 -6.0625 Z M 3.8125 -6.0625 "/></g></g></g><g fill="#000000" fill-opacity="1"><g transform="translate(180.791121, 198.369275)"><g><path d="M 2.40625 -4.875 L 2.40625 -1.5 C 2.40625 -1.125 2.578125 -0.9375 2.921875 -0.9375 C 2.972656 -0.9375 3.039062 -0.945312 3.125 -0.96875 C 3.21875 -1 3.289062 -1.015625 3.34375 -1.015625 C 3.4375 -1.015625 3.515625 -0.972656 3.578125 -0.890625 C 3.648438 -0.804688 3.6875 -0.703125 3.6875 -0.578125 C 3.6875 -0.421875 3.597656 -0.285156 3.421875 -0.171875 C 3.242188 -0.0546875 3.039062 0 2.8125 0 C 2.5625 0 2.332031 -0.0234375 2.125 -0.078125 C 1.914062 -0.128906 1.726562 -0.257812 1.5625 -0.46875 C 1.40625 -0.6875 1.328125 -1.015625 1.328125 -1.453125 L 1.328125 -4.875 L 0.671875 -4.875 C 0.535156 -4.875 0.421875 -4.921875 0.328125 -5.015625 C 0.234375 -5.109375 0.1875 -5.222656 0.1875 -5.359375 C 0.1875 -5.503906 0.234375 -5.625 0.328125 -5.71875 C 0.421875 -5.8125 0.535156 -5.859375 0.671875 -5.859375 L 1.328125 -5.859375 L 1.328125 -6.796875 C 1.328125 -6.953125 1.378906 -7.082031 1.484375 -7.1875 C 1.585938 -7.289062 1.71875 -7.34375 1.875 -7.34375 C 2.019531 -7.34375 2.144531 -7.289062 2.25 -7.1875 C 2.351562 -7.082031 2.40625 -6.953125 2.40625 -6.796875 L 2.40625 -5.859375 L 3.34375 -5.859375 C 3.488281 -5.859375 3.609375 -5.804688 3.703125 -5.703125 C 3.796875 -5.609375 3.84375 -5.492188 3.84375 -5.359375 C 3.84375 -5.210938 3.796875 -5.09375 3.703125 -5 C 3.609375 -4.914062 3.488281 -4.875 3.34375 -4.875 Z M 2.40625 -4.875 "/></g></g></g><g fill="#000000" fill-opacity="1"><g transform="translate(192.456163, 198.369275)"><g><path d="M 5.609375 -6 C 5.765625 -6 5.890625 -5.945312 5.984375 -5.84375 C 6.085938 -5.738281 6.140625 -5.601562 6.140625 -5.4375 L 6.140625 -0.546875 C 6.140625 -0.390625 6.085938 -0.257812 5.984375 -0.15625 C 5.890625 -0.0507812 5.765625 0 5.609375 0 C 5.441406 0 5.3125 -0.0507812 5.21875 -0.15625 C 5.125 -0.257812 5.078125 -0.390625 5.078125 -0.546875 L 5.078125 -0.84375 C 4.878906 -0.570312 4.609375 -0.34375 4.265625 -0.15625 C 3.929688 0.0195312 3.566406 0.109375 3.171875 0.109375 C 2.660156 0.109375 2.195312 -0.0195312 1.78125 -0.28125 C 1.363281 -0.539062 1.035156 -0.90625 0.796875 -1.375 C 0.554688 -1.851562 0.4375 -2.382812 0.4375 -2.96875 C 0.4375 -3.5625 0.554688 -4.09375 0.796875 -4.5625 C 1.035156 -5.03125 1.359375 -5.394531 1.765625 -5.65625 C 2.179688 -5.925781 2.640625 -6.0625 3.140625 -6.0625 C 3.535156 -6.0625 3.90625 -5.976562 4.25 -5.8125 C 4.59375 -5.644531 4.867188 -5.429688 5.078125 -5.171875 L 5.078125 -5.4375 C 5.078125 -5.601562 5.125 -5.738281 5.21875 -5.84375 C 5.3125 -5.945312 5.441406 -6 5.609375 -6 Z M 3.296875 -0.875 C 3.648438 -0.875 3.960938 -0.960938 4.234375 -1.140625 C 4.515625 -1.328125 4.734375 -1.578125 4.890625 -1.890625 C 5.046875 -2.210938 5.125 -2.570312 5.125 -2.96875 C 5.125 -3.363281 5.046875 -3.71875 4.890625 -4.03125 C 4.734375 -4.34375 4.515625 -4.59375 4.234375 -4.78125 C 3.960938 -4.96875 3.648438 -5.0625 3.296875 -5.0625 C 2.941406 -5.0625 2.625 -4.96875 2.34375 -4.78125 C 2.070312 -4.601562 1.859375 -4.351562 1.703125 -4.03125 C 1.554688 -3.71875 1.484375 -3.363281 1.484375 -2.96875 C 1.484375 -2.570312 1.554688 -2.210938 1.703125 -1.890625 C 1.859375 -1.578125 2.070312 -1.328125 2.34375 -1.140625 C 2.625 -0.960938 2.941406 -0.875 3.296875 -0.875 Z M 3.296875 -0.875 "/></g></g></g><g fill="#000000" fill-opacity="1"><g transform="translate(206.764687, 198.369275)"><g><path d="M 1.96875 -0.546875 C 1.96875 -0.390625 1.914062 -0.257812 1.8125 -0.15625 C 1.707031 -0.0507812 1.578125 0 1.421875 0 C 1.273438 0 1.148438 -0.0507812 1.046875 -0.15625 C 0.941406 -0.257812 0.890625 -0.390625 0.890625 -0.546875 L 0.890625 -7.8125 C 0.890625 -7.96875 0.941406 -8.097656 1.046875 -8.203125 C 1.148438 -8.304688 1.28125 -8.359375 1.4375 -8.359375 C 1.582031 -8.359375 1.707031 -8.304688 1.8125 -8.203125 C 1.914062 -8.097656 1.96875 -7.96875 1.96875 -7.8125 Z M 1.96875 -0.546875 "/></g></g></g><g fill="#000000" fill-opacity="1"><g transform="translate(216.995029, 198.369275)"><g/></g></g><g fill="#000000" fill-opacity="1"><g transform="translate(227.496493, 198.369275)"><g><path d="M 0.46875 -0.921875 C 0.394531 -1.023438 0.359375 -1.128906 0.359375 -1.234375 C 0.359375 -1.378906 0.4375 -1.503906 0.59375 -1.609375 C 0.675781 -1.660156 0.765625 -1.6875 0.859375 -1.6875 C 0.992188 -1.6875 1.117188 -1.632812 1.234375 -1.53125 C 1.453125 -1.269531 1.691406 -1.070312 1.953125 -0.9375 C 2.210938 -0.8125 2.523438 -0.75 2.890625 -0.75 C 3.179688 -0.757812 3.429688 -0.828125 3.640625 -0.953125 C 3.859375 -1.078125 3.96875 -1.28125 3.96875 -1.5625 C 3.96875 -1.8125 3.859375 -2.003906 3.640625 -2.140625 C 3.421875 -2.273438 3.097656 -2.398438 2.671875 -2.515625 C 2.242188 -2.628906 1.890625 -2.75 1.609375 -2.875 C 1.335938 -3 1.101562 -3.175781 0.90625 -3.40625 C 0.71875 -3.644531 0.625 -3.957031 0.625 -4.34375 C 0.625 -4.6875 0.71875 -4.984375 0.90625 -5.234375 C 1.101562 -5.492188 1.359375 -5.695312 1.671875 -5.84375 C 1.992188 -5.988281 2.34375 -6.0625 2.71875 -6.0625 C 3.082031 -6.0625 3.441406 -5.992188 3.796875 -5.859375 C 4.160156 -5.722656 4.453125 -5.515625 4.671875 -5.234375 C 4.765625 -5.128906 4.8125 -5.019531 4.8125 -4.90625 C 4.8125 -4.78125 4.75 -4.660156 4.625 -4.546875 C 4.550781 -4.484375 4.457031 -4.453125 4.34375 -4.453125 C 4.207031 -4.453125 4.097656 -4.5 4.015625 -4.59375 C 3.859375 -4.769531 3.664062 -4.90625 3.4375 -5 C 3.207031 -5.101562 2.953125 -5.15625 2.671875 -5.15625 C 2.390625 -5.15625 2.148438 -5.09375 1.953125 -4.96875 C 1.753906 -4.851562 1.65625 -4.660156 1.65625 -4.390625 C 1.65625 -4.117188 1.765625 -3.921875 1.984375 -3.796875 C 2.210938 -3.671875 2.554688 -3.546875 3.015625 -3.421875 C 3.410156 -3.316406 3.738281 -3.203125 4 -3.078125 C 4.269531 -2.960938 4.492188 -2.785156 4.671875 -2.546875 C 4.859375 -2.304688 4.953125 -1.992188 4.953125 -1.609375 C 4.953125 -1.253906 4.847656 -0.945312 4.640625 -0.6875 C 4.441406 -0.4375 4.175781 -0.238281 3.84375 -0.09375 C 3.519531 0.0390625 3.171875 0.109375 2.796875 0.109375 C 2.328125 0.109375 1.890625 0.0234375 1.484375 -0.140625 C 1.078125 -0.304688 0.738281 -0.566406 0.46875 -0.921875 Z M 0.46875 -0.921875 "/></g></g></g><g fill="#000000" fill-opacity="1"><g transform="translate(240.257341, 198.369275)"><g><path d="M 5.203125 -5.96875 C 5.359375 -5.96875 5.488281 -5.914062 5.59375 -5.8125 C 5.695312 -5.707031 5.75 -5.582031 5.75 -5.4375 L 5.75 -0.546875 C 5.75 0.390625 5.488281 1.09375 4.96875 1.5625 C 4.445312 2.03125 3.765625 2.265625 2.921875 2.265625 C 2.640625 2.265625 2.363281 2.234375 2.09375 2.171875 C 1.820312 2.117188 1.597656 2.050781 1.421875 1.96875 C 1.140625 1.84375 1 1.671875 1 1.453125 C 1 1.410156 1.007812 1.359375 1.03125 1.296875 C 1.070312 1.171875 1.132812 1.070312 1.21875 1 C 1.300781 0.9375 1.394531 0.90625 1.5 0.90625 C 1.5625 0.90625 1.617188 0.914062 1.671875 0.9375 C 1.898438 1.039062 2.101562 1.125 2.28125 1.1875 C 2.46875 1.25 2.679688 1.28125 2.921875 1.28125 C 4.085938 1.28125 4.671875 0.679688 4.671875 -0.515625 L 4.671875 -0.75 C 4.472656 -0.476562 4.210938 -0.265625 3.890625 -0.109375 C 3.566406 0.0351562 3.203125 0.109375 2.796875 0.109375 C 2.171875 0.109375 1.679688 -0.0859375 1.328125 -0.484375 C 0.972656 -0.878906 0.796875 -1.40625 0.796875 -2.0625 L 0.796875 -5.4375 C 0.796875 -5.59375 0.84375 -5.71875 0.9375 -5.8125 C 1.039062 -5.914062 1.171875 -5.96875 1.328125 -5.96875 C 1.484375 -5.96875 1.613281 -5.914062 1.71875 -5.8125 C 1.820312 -5.707031 1.875 -5.582031 1.875 -5.4375 L 1.875 -2.34375 C 1.875 -1.84375 1.984375 -1.472656 2.203125 -1.234375 C 2.421875 -0.992188 2.753906 -0.875 3.203125 -0.875 C 3.628906 -0.875 3.976562 -1.007812 4.25 -1.28125 C 4.53125 -1.550781 4.671875 -1.90625 4.671875 -2.34375 L 4.671875 -5.4375 C 4.671875 -5.59375 4.71875 -5.71875 4.8125 -5.8125 C 4.914062 -5.914062 5.046875 -5.96875 5.203125 -5.96875 Z M 5.203125 -5.96875 "/></g></g></g><g fill="#000000" fill-opacity="1"><g transform="translate(254.170472, 198.369275)"><g><path d="M 0.46875 -0.921875 C 0.394531 -1.023438 0.359375 -1.128906 0.359375 -1.234375 C 0.359375 -1.378906 0.4375 -1.503906 0.59375 -1.609375 C 0.675781 -1.660156 0.765625 -1.6875 0.859375 -1.6875 C 0.992188 -1.6875 1.117188 -1.632812 1.234375 -1.53125 C 1.453125 -1.269531 1.691406 -1.070312 1.953125 -0.9375 C 2.210938 -0.8125 2.523438 -0.75 2.890625 -0.75 C 3.179688 -0.757812 3.429688 -0.828125 3.640625 -0.953125 C 3.859375 -1.078125 3.96875 -1.28125 3.96875 -1.5625 C 3.96875 -1.8125 3.859375 -2.003906 3.640625 -2.140625 C 3.421875 -2.273438 3.097656 -2.398438 2.671875 -2.515625 C 2.242188 -2.628906 1.890625 -2.75 1.609375 -2.875 C 1.335938 -3 1.101562 -3.175781 0.90625 -3.40625 C 0.71875 -3.644531 0.625 -3.957031 0.625 -4.34375 C 0.625 -4.6875 0.71875 -4.984375 0.90625 -5.234375 C 1.101562 -5.492188 1.359375 -5.695312 1.671875 -5.84375 C 1.992188 -5.988281 2.34375 -6.0625 2.71875 -6.0625 C 3.082031 -6.0625 3.441406 -5.992188 3.796875 -5.859375 C 4.160156 -5.722656 4.453125 -5.515625 4.671875 -5.234375 C 4.765625 -5.128906 4.8125 -5.019531 4.8125 -4.90625 C 4.8125 -4.78125 4.75 -4.660156 4.625 -4.546875 C 4.550781 -4.484375 4.457031 -4.453125 4.34375 -4.453125 C 4.207031 -4.453125 4.097656 -4.5 4.015625 -4.59375 C 3.859375 -4.769531 3.664062 -4.90625 3.4375 -5 C 3.207031 -5.101562 2.953125 -5.15625 2.671875 -5.15625 C 2.390625 -5.15625 2.148438 -5.09375 1.953125 -4.96875 C 1.753906 -4.851562 1.65625 -4.660156 1.65625 -4.390625 C 1.65625 -4.117188 1.765625 -3.921875 1.984375 -3.796875 C 2.210938 -3.671875 2.554688 -3.546875 3.015625 -3.421875 C 3.410156 -3.316406 3.738281 -3.203125 4 -3.078125 C 4.269531 -2.960938 4.492188 -2.785156 4.671875 -2.546875 C 4.859375 -2.304688 4.953125 -1.992188 4.953125 -1.609375 C 4.953125 -1.253906 4.847656 -0.945312 4.640625 -0.6875 C 4.441406 -0.4375 4.175781 -0.238281 3.84375 -0.09375 C 3.519531 0.0390625 3.171875 0.109375 2.796875 0.109375 C 2.328125 0.109375 1.890625 0.0234375 1.484375 -0.140625 C 1.078125 -0.304688 0.738281 -0.566406 0.46875 -0.921875 Z M 0.46875 -0.921875 "/></g></g></g><g fill="#000000" fill-opacity="1"><g transform="translate(266.931319, 198.369275)"><g><path d="M 2.40625 -4.875 L 2.40625 -1.5 C 2.40625 -1.125 2.578125 -0.9375 2.921875 -0.9375 C 2.972656 -0.9375 3.039062 -0.945312 3.125 -0.96875 C 3.21875 -1 3.289062 -1.015625 3.34375 -1.015625 C 3.4375 -1.015625 3.515625 -0.972656 3.578125 -0.890625 C 3.648438 -0.804688 3.6875 -0.703125 3.6875 -0.578125 C 3.6875 -0.421875 3.597656 -0.285156 3.421875 -0.171875 C 3.242188 -0.0546875 3.039062 0 2.8125 0 C 2.5625 0 2.332031 -0.0234375 2.125 -0.078125 C 1.914062 -0.128906 1.726562 -0.257812 1.5625 -0.46875 C 1.40625 -0.6875 1.328125 -1.015625 1.328125 -1.453125 L 1.328125 -4.875 L 0.671875 -4.875 C 0.535156 -4.875 0.421875 -4.921875 0.328125 -5.015625 C 0.234375 -5.109375 0.1875 -5.222656 0.1875 -5.359375 C 0.1875 -5.503906 0.234375 -5.625 0.328125 -5.71875 C 0.421875 -5.8125 0.535156 -5.859375 0.671875 -5.859375 L 1.328125 -5.859375 L 1.328125 -6.796875 C 1.328125 -6.953125 1.378906 -7.082031 1.484375 -7.1875 C 1.585938 -7.289062 1.71875 -7.34375 1.875 -7.34375 C 2.019531 -7.34375 2.144531 -7.289062 2.25 -7.1875 C 2.351562 -7.082031 2.40625 -6.953125 2.40625 -6.796875 L 2.40625 -5.859375 L 3.34375 -5.859375 C 3.488281 -5.859375 3.609375 -5.804688 3.703125 -5.703125 C 3.796875 -5.609375 3.84375 -5.492188 3.84375 -5.359375 C 3.84375 -5.210938 3.796875 -5.09375 3.703125 -5 C 3.609375 -4.914062 3.488281 -4.875 3.34375 -4.875 Z M 2.40625 -4.875 "/></g></g></g><g fill="#000000" fill-opacity="1"><g transform="translate(278.59635, 198.369275)"><g><path d="M 6 -3.1875 C 5.988281 -3.050781 5.929688 -2.9375 5.828125 -2.84375 C 5.722656 -2.75 5.597656 -2.703125 5.453125 -2.703125 L 1.484375 -2.703125 C 1.535156 -2.148438 1.742188 -1.707031 2.109375 -1.375 C 2.472656 -1.039062 2.921875 -0.875 3.453125 -0.875 C 3.804688 -0.875 4.097656 -0.925781 4.328125 -1.03125 C 4.554688 -1.144531 4.753906 -1.285156 4.921875 -1.453125 C 5.035156 -1.515625 5.144531 -1.546875 5.25 -1.546875 C 5.375 -1.546875 5.476562 -1.5 5.5625 -1.40625 C 5.65625 -1.320312 5.703125 -1.21875 5.703125 -1.09375 C 5.703125 -0.9375 5.628906 -0.796875 5.484375 -0.671875 C 5.265625 -0.453125 4.972656 -0.265625 4.609375 -0.109375 C 4.242188 0.0351562 3.875 0.109375 3.5 0.109375 C 2.894531 0.109375 2.359375 -0.015625 1.890625 -0.265625 C 1.429688 -0.523438 1.070312 -0.882812 0.8125 -1.34375 C 0.5625 -1.800781 0.4375 -2.320312 0.4375 -2.90625 C 0.4375 -3.539062 0.566406 -4.09375 0.828125 -4.5625 C 1.085938 -5.039062 1.429688 -5.410156 1.859375 -5.671875 C 2.285156 -5.929688 2.742188 -6.0625 3.234375 -6.0625 C 3.710938 -6.0625 4.160156 -5.9375 4.578125 -5.6875 C 5.003906 -5.4375 5.34375 -5.09375 5.59375 -4.65625 C 5.851562 -4.21875 5.988281 -3.726562 6 -3.1875 Z M 3.234375 -5.0625 C 2.804688 -5.0625 2.4375 -4.941406 2.125 -4.703125 C 1.820312 -4.460938 1.625 -4.097656 1.53125 -3.609375 L 4.859375 -3.609375 L 4.859375 -3.6875 C 4.816406 -4.09375 4.632812 -4.421875 4.3125 -4.671875 C 4 -4.929688 3.640625 -5.0625 3.234375 -5.0625 Z M 3.234375 -5.0625 "/></g></g></g><g fill="#000000" fill-opacity="1"><g transform="translate(292.407811, 198.369275)"><g><path d="M 7.59375 -6.015625 C 8.90625 -6.015625 9.5625 -5.195312 9.5625 -3.5625 L 9.5625 -0.546875 C 9.5625 -0.390625 9.515625 -0.257812 9.421875 -0.15625 C 9.328125 -0.0507812 9.195312 0 9.03125 0 C 8.875 0 8.742188 -0.0507812 8.640625 -0.15625 C 8.546875 -0.257812 8.5 -0.390625 8.5 -0.546875 L 8.5 -3.546875 C 8.5 -4.535156 8.082031 -5.03125 7.25 -5.03125 C 6.957031 -5.03125 6.691406 -4.960938 6.453125 -4.828125 C 6.210938 -4.691406 6.023438 -4.507812 5.890625 -4.28125 C 5.765625 -4.0625 5.703125 -3.816406 5.703125 -3.546875 L 5.703125 -0.546875 C 5.703125 -0.390625 5.648438 -0.257812 5.546875 -0.15625 C 5.453125 -0.0507812 5.320312 0 5.15625 0 C 5 0 4.867188 -0.0507812 4.765625 -0.15625 C 4.671875 -0.257812 4.625 -0.390625 4.625 -0.546875 L 4.625 -3.5625 C 4.625 -4 4.53125 -4.351562 4.34375 -4.625 C 4.15625 -4.894531 3.84375 -5.03125 3.40625 -5.03125 C 2.96875 -5.03125 2.601562 -4.890625 2.3125 -4.609375 C 2.019531 -4.328125 1.875 -3.976562 1.875 -3.5625 L 1.875 -0.546875 C 1.875 -0.390625 1.820312 -0.257812 1.71875 -0.15625 C 1.613281 -0.0507812 1.484375 0 1.328125 0 C 1.171875 0 1.039062 -0.0507812 0.9375 -0.15625 C 0.84375 -0.257812 0.796875 -0.390625 0.796875 -0.546875 L 0.796875 -5.375 C 0.796875 -5.53125 0.847656 -5.660156 0.953125 -5.765625 C 1.054688 -5.867188 1.179688 -5.921875 1.328125 -5.921875 C 1.484375 -5.921875 1.613281 -5.867188 1.71875 -5.765625 C 1.820312 -5.660156 1.875 -5.53125 1.875 -5.375 L 1.875 -4.984375 C 2.070312 -5.273438 2.332031 -5.519531 2.65625 -5.71875 C 2.988281 -5.914062 3.347656 -6.015625 3.734375 -6.015625 C 4.660156 -6.015625 5.265625 -5.601562 5.546875 -4.78125 C 5.710938 -5.09375 5.988281 -5.375 6.375 -5.625 C 6.757812 -5.882812 7.164062 -6.015625 7.59375 -6.015625 Z M 7.59375 -6.015625 "/></g></g></g></svg>